<svg version="1.1" id="Layer_1" xmlns="http://www.w3.org/2000/svg" xmlns:xlink="http://www.w3.org/1999/xlink" x="0px" y="0px"
	 width="100%" viewBox="0 0 500 500" enable-background="new 0 0 500 500" xml:space="preserve">
<path fill="#FFFFFF" opacity="1.000000" stroke="none" 
	d="
M219.000000,501.000000 
	C146.000015,501.000000 73.500038,501.000000 1.000039,501.000000 
	C1.000026,334.333405 1.000026,167.666779 1.000013,1.000128 
	C167.666565,1.000086 334.333130,1.000086 500.999756,1.000043 
	C500.999847,167.666534 500.999847,334.333069 500.999939,500.999817 
	C407.166656,501.000000 313.333344,501.000000 219.000000,501.000000 
M264.998413,285.996796 
	C264.998413,285.996796 265.046600,285.961182 265.051086,285.172760 
	C262.481140,284.828033 259.911224,284.483307 256.410004,284.067871 
	C254.765625,284.063477 253.114761,283.961914 251.477966,284.071167 
	C243.793991,284.584229 240.418762,286.878113 238.492279,293.115814 
	C238.418274,298.055542 238.275726,302.995392 238.285477,307.934967 
	C238.302307,316.464294 241.915512,319.850525 251.710037,319.956421 
	C257.993073,319.803131 264.063049,319.143555 268.392609,312.521576 
	C268.593384,305.041382 268.874756,297.561493 268.900787,290.080688 
	C268.904327,289.056091 267.636414,288.027069 267.006866,286.995148 
	C267.006866,286.995148 266.998169,287.044312 266.828918,286.354309 
	C266.225464,286.216309 265.622040,286.078308 264.998413,285.996796 
M199.984665,312.998871 
	C199.984665,312.998871 200.011627,313.068237 200.698593,312.717194 
	C200.989273,309.322815 201.806000,305.869873 201.436142,302.549072 
	C200.983917,298.488556 198.402206,296.139221 193.024414,297.041718 
	C191.609283,296.867371 190.194153,296.693024 188.122894,296.437805 
	C192.359528,294.875916 195.649689,293.662964 199.613647,291.853119 
	C199.119537,289.219971 198.737625,284.335907 198.113831,284.304840 
	C192.417862,284.020935 186.679810,284.581299 180.300858,285.146912 
	C172.689346,287.467316 173.820465,293.764587 173.983566,299.438538 
	C174.208923,307.277374 182.214447,304.897644 186.260773,308.261963 
	C182.206879,308.979523 178.470062,309.640930 174.116028,310.582153 
	C173.031876,313.607391 171.383636,318.051971 175.425674,318.658844 
	C181.441986,319.562134 187.781937,318.309814 194.680847,317.912598 
	C196.148270,316.801239 197.615692,315.689880 199.541016,314.364655 
	C199.711411,313.898987 199.881805,313.433319 199.984665,312.998871 
M303.872772,286.322144 
	C301.938232,293.240814 302.417389,294.130524 309.374725,295.690460 
	C309.374725,299.984528 309.374725,304.400177 308.545990,308.981140 
	C304.712799,308.875519 302.723511,310.456818 302.988495,314.572479 
	C303.256042,318.727936 305.927551,319.096161 309.163910,319.024475 
	C312.945251,318.940765 316.751129,319.246033 320.505219,318.915436 
	C322.793274,318.713959 325.003845,317.631866 327.919769,316.663391 
	C330.018982,310.148010 329.425049,309.007416 322.695038,307.174011 
	C322.695038,303.153107 322.695038,299.039490 323.446472,294.966614 
	C324.706665,294.248413 325.966827,293.530212 327.881195,292.538574 
	C329.092590,289.491211 330.392365,284.805939 326.800903,284.312805 
	C319.996246,283.378418 312.902985,284.546112 305.349823,285.091492 
	C305.073273,285.403656 304.796692,285.715820 303.872772,286.322144 
M300.808868,302.636078 
	C300.953674,298.514984 301.248230,294.392212 301.201050,290.273315 
	C301.154236,286.189575 297.380249,283.861877 292.013031,284.979584 
	C285.973297,285.340210 279.933563,285.700836 273.218018,286.383362 
	C273.218018,297.099213 273.218018,307.815063 273.218018,319.325439 
	C276.486023,318.909210 279.646637,318.506683 283.510223,317.820953 
	C284.487305,315.344604 285.464386,312.868225 286.598785,309.993225 
	C291.660065,309.583679 297.501373,309.535065 300.808868,302.636078 
M234.616806,316.388519 
	C234.616806,305.714386 234.616806,295.040222 234.616806,283.871704 
	C231.874252,283.871704 229.423157,283.871704 226.855347,283.048889 
	C227.355499,280.144440 227.855652,277.240021 228.390335,274.134949 
	C225.997650,273.943604 223.198608,274.228546 220.827652,273.353516 
	C219.212082,272.757294 217.041382,270.408020 217.192230,269.077728 
	C217.397171,267.270416 219.338928,265.354553 221.009720,264.133911 
	C222.007797,263.404724 223.912262,263.876709 225.409317,263.875916 
	C243.408508,263.866638 261.407715,263.869904 279.406891,263.869904 
	C281.167786,263.869904 282.928680,263.869904 285.006195,263.869904 
	C285.006195,259.817841 284.834808,256.491302 285.047577,253.189499 
	C285.344635,248.579697 285.211365,243.773956 286.511292,239.425461 
	C292.894348,218.072861 299.694763,196.845062 306.335632,175.569397 
	C306.977753,173.512238 307.536560,171.429077 308.134064,169.358002 
	C307.778107,169.182907 307.422150,169.007828 307.066162,168.832733 
	C288.403687,183.444183 269.741211,198.055634 250.871628,212.829239 
	C239.779663,199.711990 229.209427,187.211716 218.639175,174.711426 
	C219.009354,174.356628 219.379517,174.001816 219.749695,173.647018 
	C228.680710,179.717911 237.692627,185.674942 246.494308,191.927887 
	C249.196854,193.847839 251.153259,194.009537 254.044144,192.246506 
	C269.680023,182.710861 285.458374,173.408920 301.179321,164.012527 
	C302.467285,163.242722 303.692993,162.368790 305.359558,161.272141 
	C267.523956,161.272141 230.430298,161.272141 193.251999,161.272141 
	C193.315567,162.044586 193.268066,162.560257 193.408600,163.018234 
	C201.310501,188.769592 209.287750,214.498154 217.069260,240.285767 
	C218.050583,243.537796 219.985458,243.710403 222.666916,243.699585 
	C238.165970,243.637100 253.665421,243.660538 269.164673,243.680954 
	C270.925934,243.683273 272.686951,243.848267 274.366150,243.933655 
	C274.366150,247.513870 274.366150,250.537354 274.366150,253.854828 
	C272.056488,253.854828 270.234558,253.854782 268.412598,253.854813 
	C252.746643,253.855072 237.080460,253.805313 221.414825,253.875778 
	C212.985611,253.913696 206.954712,260.021484 206.863022,268.367401 
	C206.756653,278.048462 213.283218,283.708588 224.693909,284.381683 
	C224.693909,284.381683 224.744370,284.852661 223.923874,285.238678 
	C223.340164,288.464111 222.756454,291.689575 221.433746,295.170837 
	C220.038651,295.170837 218.643570,295.170837 216.740875,295.170837 
	C216.740875,291.112183 216.740875,287.707550 216.740875,283.410248 
	C212.995209,283.943665 209.847076,284.391998 206.178436,285.027161 
	C205.785797,285.402161 205.393143,285.777161 204.286514,286.590576 
	C204.286514,297.308197 204.286514,308.025818 204.286514,319.426514 
	C207.955536,318.931396 210.971680,318.524353 214.691086,317.816986 
	C215.547363,314.195709 216.403641,310.574463 218.086395,307.062775 
	C219.315277,307.178528 220.544159,307.294250 222.190094,307.449249 
	C222.190094,311.370941 222.190094,314.926056 222.190094,319.350006 
	C225.827438,318.900391 228.944717,318.515045 232.608215,317.954193 
	C233.036942,317.576050 233.465668,317.197876 234.616806,316.388519 
z"/>
<path fill="#3DC1CD" opacity="1.000000" stroke="none" 
	d="
M224.793701,283.917755 
	C213.283218,283.708588 206.756653,278.048462 206.863022,268.367401 
	C206.954712,260.021484 212.985611,253.913696 221.414825,253.875778 
	C237.080460,253.805313 252.746643,253.855072 268.412598,253.854813 
	C270.234558,253.854782 272.056488,253.854828 274.366150,253.854828 
	C274.366150,250.537354 274.366150,247.513870 274.366150,243.933655 
	C272.686951,243.848267 270.925934,243.683273 269.164673,243.680954 
	C253.665421,243.660538 238.165970,243.637100 222.666916,243.699585 
	C219.985458,243.710403 218.050583,243.537796 217.069260,240.285767 
	C209.287750,214.498154 201.310501,188.769592 193.408600,163.018234 
	C193.268066,162.560257 193.315567,162.044586 193.251999,161.272141 
	C230.430298,161.272141 267.523956,161.272141 305.359558,161.272141 
	C303.692993,162.368790 302.467285,163.242722 301.179321,164.012527 
	C285.458374,173.408920 269.680023,182.710861 254.044144,192.246506 
	C251.153259,194.009537 249.196854,193.847839 246.494308,191.927887 
	C237.692627,185.674942 228.680710,179.717911 219.749695,173.647018 
	C219.379517,174.001816 219.009354,174.356628 218.639175,174.711426 
	C229.209427,187.211716 239.779663,199.711990 250.871628,212.829239 
	C269.741211,198.055634 288.403687,183.444183 307.066162,168.832733 
	C307.422150,169.007828 307.778107,169.182907 308.134064,169.358002 
	C307.536560,171.429077 306.977753,173.512238 306.335632,175.569397 
	C299.694763,196.845062 292.894348,218.072861 286.511292,239.425461 
	C285.211365,243.773956 285.344635,248.579697 285.047577,253.189499 
	C284.834808,256.491302 285.006195,259.817841 285.006195,263.869904 
	C282.928680,263.869904 281.167786,263.869904 279.406891,263.869904 
	C261.407715,263.869904 243.408508,263.866638 225.409317,263.875916 
	C223.912262,263.876709 222.007797,263.404724 221.009720,264.133911 
	C219.338928,265.354553 217.397171,267.270416 217.192230,269.077728 
	C217.041382,270.408020 219.212082,272.757294 220.827652,273.353516 
	C223.198608,274.228546 225.997650,273.943604 228.390335,274.134949 
	C227.855652,277.240021 227.355499,280.144440 226.642303,283.493774 
	C225.884064,283.931702 225.338882,283.924744 224.793701,283.917755 
M248.137573,169.515045 
	C242.889023,171.623993 240.279831,175.170212 241.177505,179.540588 
	C242.058578,183.830200 244.573074,186.728333 249.230148,187.090073 
	C254.175095,187.474167 258.429718,183.887878 258.901123,179.048965 
	C259.429535,173.624344 255.600098,169.903030 248.137573,169.515045 
z"/>
<path fill="#7945E7" opacity="1.000000" stroke="none" 
	d="
M267.887848,313.148621 
	C264.063049,319.143555 257.993073,319.803131 251.217499,319.552856 
	C250.203247,318.822845 249.719360,318.315338 249.154083,318.197174 
	C241.124084,316.518188 238.932892,313.901184 238.914551,305.850647 
	C238.904434,301.409180 238.899994,296.967682 238.893005,292.526215 
	C240.418762,286.878113 243.793991,284.584229 251.477966,284.071167 
	C253.114761,283.961914 254.765625,284.063477 257.134247,284.309662 
	C260.254517,285.021362 262.650574,285.491272 265.046600,285.961182 
	C265.046600,285.961182 264.998413,285.996796 265.084412,286.322388 
	C265.779633,286.780121 266.388916,286.912231 266.998169,287.044312 
	C266.998169,287.044312 267.006866,286.995148 266.826263,287.405762 
	C267.059723,296.260468 267.473785,304.704559 267.887848,313.148621 
M250.041550,299.674011 
	C250.044754,301.673523 249.509064,303.891113 250.204803,305.610382 
	C250.882172,307.284180 252.820267,308.447815 254.204819,309.835419 
	C255.045258,308.516357 256.360657,307.282837 256.617188,305.858612 
	C257.024139,303.599365 256.769989,301.211456 256.708557,298.880249 
	C256.649719,296.648071 257.324982,294.017365 253.500198,294.074280 
	C250.022797,294.126007 249.895447,296.254608 250.041550,299.674011 
z"/>
<path fill="#7945E7" opacity="1.000000" stroke="none" 
	d="
M217.259918,306.953186 
	C216.403641,310.574463 215.547363,314.195709 213.898682,317.921692 
	C205.077316,317.721100 205.043518,319.686768 205.072327,309.985382 
	C205.095901,302.041107 205.027908,294.096588 205.000519,286.152161 
	C205.393143,285.777161 205.785797,285.402161 206.911163,285.005493 
	C210.056274,284.983826 212.468658,284.983826 215.369263,284.983826 
	C215.369263,288.562347 215.127380,291.381134 215.497498,294.117157 
	C215.631119,295.104950 217.097702,296.355713 218.193268,296.676666 
	C220.385757,297.318970 221.333862,296.679932 222.172760,294.915009 
	C222.756454,291.689575 223.340164,288.464111 224.717896,285.112885 
	C226.170364,285.000885 226.845810,285.117493 227.484619,285.012115 
	C232.373917,284.205627 234.162598,285.932434 233.900101,291.140381 
	C233.469727,299.678558 233.853790,308.257812 233.894379,316.819733 
	C233.465668,317.197876 233.036942,317.576050 231.889648,317.991425 
	C220.258789,320.184235 223.861267,311.288696 222.716095,305.623352 
	C220.515533,306.159698 218.887726,306.556427 217.259918,306.953186 
z"/>
<path fill="#7945E7" opacity="1.000000" stroke="none" 
	d="
M199.083099,314.578522 
	C197.615692,315.689880 196.148270,316.801239 193.864563,317.961975 
	C187.121078,318.011353 181.193848,318.011353 175.094070,318.011353 
	C174.949326,314.919037 174.841278,312.610687 174.733231,310.302368 
	C178.470062,309.640930 182.206879,308.979523 186.260773,308.261963 
	C182.214447,304.897644 174.208923,307.277374 173.983566,299.438538 
	C173.820465,293.764587 172.689346,287.467316 181.096054,285.075806 
	C184.856110,285.012817 187.820984,285.026611 190.785843,285.028015 
	C198.414597,285.031647 198.414597,285.029449 198.939850,292.450012 
	C195.649689,293.662964 192.359528,294.875916 188.122894,296.437805 
	C190.194153,296.693024 191.609283,296.867371 193.631516,297.371429 
	C198.563797,298.867767 200.411804,301.699921 200.096161,306.140442 
	C199.932678,308.440094 200.031372,310.758362 200.011627,313.068237 
	C200.011627,313.068237 199.984665,312.998871 199.825348,313.134644 
	C199.471725,313.706451 199.277420,314.142487 199.083099,314.578522 
z"/>
<path fill="#7945E7" opacity="1.000000" stroke="none" 
	d="
M273.893829,286.061462 
	C279.933563,285.700836 285.973297,285.340210 292.778931,285.149963 
	C298.354492,286.371094 300.338226,289.511932 300.218567,294.260864 
	C300.143890,297.223419 300.147125,300.187958 300.115387,303.151611 
	C297.501373,309.535065 291.660065,309.583679 286.598785,309.993225 
	C285.464386,312.868225 284.487305,315.344604 282.721405,317.924316 
	C279.490997,318.027710 277.049438,318.027710 273.893829,318.027710 
	C273.893829,306.923676 273.893829,296.492584 273.893829,286.061462 
z"/>
<path fill="#7945E7" opacity="1.000000" stroke="none" 
	d="
M327.249207,316.945312 
	C325.003845,317.631866 322.793274,318.713959 320.505219,318.915436 
	C316.751129,319.246033 312.945251,318.940765 309.163910,319.024475 
	C305.927551,319.096161 303.256042,318.727936 302.988495,314.572479 
	C302.723511,310.456818 304.712799,308.875519 309.319214,308.812988 
	C310.443451,303.961060 310.794434,299.277283 311.180481,294.125977 
	C303.415436,295.125397 305.020294,289.857513 304.520111,286.027954 
	C304.796692,285.715820 305.073273,285.403656 306.109283,285.036072 
	C313.410126,284.980621 319.951538,284.980621 326.844391,284.980621 
	C326.990631,287.974091 327.108826,290.393036 327.226990,292.812012 
	C325.966827,293.530212 324.706665,294.248413 322.803223,294.894775 
	C321.654358,299.429260 321.148804,304.035645 320.560333,309.397339 
	C329.272797,307.376526 326.565887,313.341858 327.249207,316.945312 
z"/>
<path fill="#F90AFE" opacity="1.000000" stroke="none" 
	d="
M273.555908,286.222412 
	C273.893829,296.492584 273.893829,306.923676 273.893829,318.027710 
	C277.049438,318.027710 279.490997,318.027710 282.369904,318.065918 
	C279.646637,318.506683 276.486023,318.909210 273.218018,319.325439 
	C273.218018,307.815063 273.218018,297.099213 273.555908,286.222412 
z"/>
<path fill="#F90AFE" opacity="1.000000" stroke="none" 
	d="
M304.196442,286.175049 
	C305.020294,289.857513 303.415436,295.125397 311.180481,294.125977 
	C310.794434,299.277283 310.443451,303.961060 309.733582,308.730347 
	C309.374725,304.400177 309.374725,299.984528 309.374725,295.690460 
	C302.417389,294.130524 301.938232,293.240814 304.196442,286.175049 
z"/>
<path fill="#23EBFC" opacity="1.000000" stroke="none" 
	d="
M327.584473,316.804352 
	C326.565887,313.341858 329.272797,307.376526 320.560333,309.397339 
	C321.148804,304.035645 321.654358,299.429260 322.427490,294.874390 
	C322.695038,299.039490 322.695038,303.153107 322.695038,307.174011 
	C329.425049,309.007416 330.018982,310.148010 327.584473,316.804352 
z"/>
<path fill="#F90AFE" opacity="1.000000" stroke="none" 
	d="
M238.692627,292.821014 
	C238.899994,296.967682 238.904434,301.409180 238.914551,305.850647 
	C238.932892,313.901184 241.124084,316.518188 249.154083,318.197174 
	C249.719360,318.315338 250.203247,318.822845 250.778961,319.494507 
	C241.915512,319.850525 238.302307,316.464294 238.285477,307.934967 
	C238.275726,302.995392 238.418274,298.055542 238.692627,292.821014 
z"/>
<path fill="#23EBFC" opacity="1.000000" stroke="none" 
	d="
M221.803253,295.042908 
	C221.333862,296.679932 220.385757,297.318970 218.193268,296.676666 
	C217.097702,296.355713 215.631119,295.104950 215.497498,294.117157 
	C215.127380,291.381134 215.369263,288.562347 215.369263,284.983826 
	C212.468658,284.983826 210.056274,284.983826 207.171417,284.912079 
	C209.847076,284.391998 212.995209,283.943665 216.740875,283.410248 
	C216.740875,287.707550 216.740875,291.112183 216.740875,295.170837 
	C218.643570,295.170837 220.038651,295.170837 221.803253,295.042908 
z"/>
<path fill="#23EBFC" opacity="1.000000" stroke="none" 
	d="
M268.140228,312.835083 
	C267.473785,304.704559 267.059723,296.260468 266.801422,287.408264 
	C267.636414,288.027069 268.904327,289.056091 268.900787,290.080688 
	C268.874756,297.561493 268.593384,305.041382 268.140228,312.835083 
z"/>
<path fill="#23EBFC" opacity="1.000000" stroke="none" 
	d="
M234.255585,316.604126 
	C233.853790,308.257812 233.469727,299.678558 233.900101,291.140381 
	C234.162598,285.932434 232.373917,284.205627 227.484619,285.012115 
	C226.845810,285.117493 226.170364,285.000885 225.128143,284.919861 
	C224.744370,284.852661 224.693909,284.381683 224.743805,284.149719 
	C225.338882,283.924744 225.884064,283.931702 226.700653,283.905212 
	C229.423157,283.871704 231.874252,283.871704 234.616806,283.871704 
	C234.616806,295.040222 234.616806,305.714386 234.255585,316.604126 
z"/>
<path fill="#F90AFE" opacity="1.000000" stroke="none" 
	d="
M204.643524,286.371368 
	C205.027908,294.096588 205.095901,302.041107 205.072327,309.985382 
	C205.043518,319.686768 205.077316,317.721100 213.547058,318.071869 
	C210.971680,318.524353 207.955536,318.931396 204.286514,319.426514 
	C204.286514,308.025818 204.286514,297.308197 204.643524,286.371368 
z"/>
<path fill="#23EBFC" opacity="1.000000" stroke="none" 
	d="
M200.355103,312.892700 
	C200.031372,310.758362 199.932678,308.440094 200.096161,306.140442 
	C200.411804,301.699921 198.563797,298.867767 194.060272,297.392273 
	C198.402206,296.139221 200.983917,298.488556 201.436142,302.549072 
	C201.806000,305.869873 200.989273,309.322815 200.355103,312.892700 
z"/>
<path fill="#23EBFC" opacity="1.000000" stroke="none" 
	d="
M327.554108,292.675293 
	C327.108826,290.393036 326.990631,287.974091 326.844391,284.980621 
	C319.951538,284.980621 313.410126,284.980621 306.399170,284.910583 
	C312.902985,284.546112 319.996246,283.378418 326.800903,284.312805 
	C330.392365,284.805939 329.092590,289.491211 327.554108,292.675293 
z"/>
<path fill="#F90AFE" opacity="1.000000" stroke="none" 
	d="
M174.424622,310.442261 
	C174.841278,312.610687 174.949326,314.919037 175.094070,318.011353 
	C181.193848,318.011353 187.121078,318.011353 193.516235,317.993073 
	C187.781937,318.309814 181.441986,319.562134 175.425674,318.658844 
	C171.383636,318.051971 173.031876,313.607391 174.424622,310.442261 
z"/>
<path fill="#23EBFC" opacity="1.000000" stroke="none" 
	d="
M300.462128,302.893860 
	C300.147125,300.187958 300.143890,297.223419 300.218567,294.260864 
	C300.338226,289.511932 298.354492,286.371094 293.242981,285.127563 
	C297.380249,283.861877 301.154236,286.189575 301.201050,290.273315 
	C301.248230,294.392212 300.953674,298.514984 300.462128,302.893860 
z"/>
<path fill="#F90AFE" opacity="1.000000" stroke="none" 
	d="
M217.673157,307.007996 
	C218.887726,306.556427 220.515533,306.159698 222.716095,305.623352 
	C223.861267,311.288696 220.258789,320.184235 231.616547,318.079193 
	C228.944717,318.515045 225.827438,318.900391 222.190094,319.350006 
	C222.190094,314.926056 222.190094,311.370941 222.190094,307.449249 
	C220.544159,307.294250 219.315277,307.178528 217.673157,307.007996 
z"/>
<path fill="#23EBFC" opacity="1.000000" stroke="none" 
	d="
M199.276749,292.151550 
	C198.414597,285.029449 198.414597,285.031647 190.785843,285.028015 
	C187.820984,285.026611 184.856110,285.012817 181.422653,284.949890 
	C186.679810,284.581299 192.417862,284.020935 198.113831,284.304840 
	C198.737625,284.335907 199.119537,289.219971 199.276749,292.151550 
z"/>
<path fill="#23EBFC" opacity="1.000000" stroke="none" 
	d="
M265.048828,285.566956 
	C262.650574,285.491272 260.254517,285.021362 257.599884,284.345032 
	C259.911224,284.483307 262.481140,284.828033 265.048828,285.566956 
z"/>
<path fill="#23EBFC" opacity="1.000000" stroke="none" 
	d="
M266.913544,286.699310 
	C266.388916,286.912231 265.779633,286.780121 265.094482,286.294189 
	C265.622040,286.078308 266.225464,286.216309 266.913544,286.699310 
z"/>
<path fill="#23EBFC" opacity="1.000000" stroke="none" 
	d="
M199.312057,314.471588 
	C199.277420,314.142487 199.471725,313.706451 199.859131,313.119019 
	C199.881805,313.433319 199.711411,313.898987 199.312057,314.471588 
z"/>
<path fill="#FFFFFF" opacity="1.000000" stroke="none" 
	d="
M248.503601,169.407883 
	C255.600098,169.903030 259.429535,173.624344 258.901123,179.048965 
	C258.429718,183.887878 254.175095,187.474167 249.230148,187.090073 
	C244.573074,186.728333 242.058578,183.830200 241.177505,179.540588 
	C240.279831,175.170212 242.889023,171.623993 248.503601,169.407883 
z"/>
<path fill="#FFFFFF" opacity="1.000000" stroke="none" 
	d="
M250.041626,299.222412 
	C249.895447,296.254608 250.022797,294.126007 253.500198,294.074280 
	C257.324982,294.017365 256.649719,296.648071 256.708557,298.880249 
	C256.769989,301.211456 257.024139,303.599365 256.617188,305.858612 
	C256.360657,307.282837 255.045258,308.516357 254.204819,309.835419 
	C252.820267,308.447815 250.882172,307.284180 250.204803,305.610382 
	C249.509064,303.891113 250.044754,301.673523 250.041626,299.222412 
z"/>
</svg>